<svg xmlns="http://www.w3.org/2000/svg" data-name="Layer 5" viewBox="0 0 2400 2400" class="logo"><path fill="#2d3ba8" d="M540.05 978.8 218.84 720.42l-.1-295.3L936.11 771.3l76.82 207.5z"></path><path fill="#e53cf6" d="M1013.92 978.8 695.7 720.42h-5v-295.3h4.9l318.32 258.39z"></path><path fill="#d7e15e" d="M218.82 425.12h476.86v295.3H218.82z"></path><path fill="#2d3ba8" d="m2176.16 975.66-986-.06-318.91-255.22 986.66-40.08z"></path><path fill="#e53cf6" d="m2176.16 975.66-318.23-255.28h-5v-295.3h4.98l318.25 258.39z"></path><path fill="#d7e15e" d="M871.26 425.08h986.66v295.3H871.26z"></path><path fill="#2d3ba8" d="M1019.13 1173.22H542.05L218.83 926.46l466.88-29.48 333.2 170.78z"></path><path fill="#e53cf6" d="M1019.13 1173.22 695.68 926.47h-5.32V821.01h5.33l323.44 245.86z"></path><path fill="#d7e15e" d="M218.82 821.01h476.86v105.46H218.82z"></path><path fill="#2d3ba8" d="M1019.13 1372.74H542.05l-323.22-246.75 466.88-29.48 333.2 170.77z"></path><path fill="#e53cf6" d="M1019.13 1372.74 695.68 1126h-5.32v-105.46h5.33l323.44 245.85z"></path><path fill="#d7e15e" d="M218.82 1020.54h476.86V1126H218.82z"></path><path fill="#2d3ba8" d="M1019.13 1574.93H542.05l-323.22-246.76 466.88-29.48 333.2 170.78z"></path><path fill="#e53cf6" d="m1019.13 1574.93-323.45-246.75h-5.32v-105.46h5.33l323.44 245.86z"></path><path fill="#d7e15e" d="M218.82 1222.72h476.86v105.46H218.82z"></path><path fill="#2d3ba8" d="M1680.59 1173.22H1203.5L871.16 926.46l476-29.48 333.21 170.78z"></path><path fill="#e53cf6" d="m1680.59 1173.22-323.46-246.75h-5.31V821.01h5.32l323.45 245.86z"></path><path fill="#d7e15e" d="M871.15 821.01h485.98v105.46H871.15z"></path><path fill="#2d3ba8" d="M1680.59 1372.74H1203.5l-332.34-246.75 476-29.48 333.21 170.77z"></path><path fill="#e53cf6" d="M1680.59 1372.74 1357.13 1126h-5.31v-105.46h5.32l323.45 245.85z"></path><path fill="#d7e15e" d="M871.15 1020.54h485.98V1126H871.15z"></path><path fill="#2d3ba8" d="M1680.59 1574.93H1203.5l-332.34-246.76 476-29.48 333.21 170.78z"></path><path fill="#e53cf6" d="m1680.59 1574.93-323.46-246.75h-5.31v-105.46h5.32l323.45 245.86z"></path><path fill="#d7e15e" d="M871.15 1222.72h485.98v105.46H871.15z"></path><path fill="#2d3ba8" d="m540.05 1970.67-321.21-255.29-.1-295.29 717.37 346.17 77.82 204.41z"></path><path fill="#e53cf6" d="M1013.92 1970.67 695.7 1715.38h-5v-295.29h4.98l318.24 258.38z"></path><path fill="#d7e15e" d="M218.82 1420.09h476.86v295.3H218.82z"></path><path fill="#2d3ba8" d="m2176.16 1970.67-986-.07-318.91-255.22 986.66-40.07z"></path><path fill="#e53cf6" d="m2176.16 1970.67-318.23-255.29h-5v-295.29h4.98l318.25 258.38z"></path><path fill="#d7e15e" d="M871.26 1420.09h986.66v295.3H871.26z"></path></svg>